<svg width="1031" height="462" viewBox="0 0 1031 462" fill="none" xmlns="http://www.w3.org/2000/svg">
<mask id="mask0_6359_3" style="mask-type:luminance" maskUnits="userSpaceOnUse" x="226" y="-1" width="579" height="335">
<path d="M226.748 -0.000244141H804.271V333.3H226.748V-0.000244141Z" fill="white"/>
</mask>
<g mask="url(#mask0_6359_3)">
<path d="M369.769 70.3763L261.686 330.547H226.748L363.728 0.185059L364.223 0.979454L528.932 262.994L548.357 226.122L569.401 260.926L533.413 330.712L369.769 70.3763ZM667.336 0.319954L577.495 170.829L598.538 204.434L703.788 0.319954H667.336ZM803.342 0.319954H766.83L625.143 268.39L453.869 0.319954H415.574L628.126 333.245L803.342 0.319954Z" fill="#F2F2F2"/>
</g>
<path d="M88.1326 357.436V460.497H81.5976L12.5904 380.998V460.497H0V357.436H6.59495L75.7221 436.935V357.436H88.1326Z" fill="#F2F2F2"/>
<path d="M168.392 356.719C175.976 356.719 183.051 358.097 189.616 360.855C196.211 363.583 201.981 367.315 206.943 372.067C211.934 376.833 215.831 382.379 218.634 388.734C221.466 395.059 222.89 401.834 222.89 409.058C222.89 416.253 221.466 423.028 218.634 429.383C215.831 435.708 211.934 441.254 206.943 446.05C201.981 450.816 196.211 454.564 189.616 457.322C183.051 460.049 175.976 461.398 168.392 461.398C160.868 461.398 153.823 460.049 147.228 457.322C140.663 454.564 134.893 450.816 129.902 446.05C124.94 441.254 121.043 435.708 118.21 429.383C115.408 423.028 114.014 416.253 114.014 409.058C114.014 401.834 115.408 395.059 118.21 388.734C121.043 382.379 124.94 376.833 129.902 372.067C134.893 367.315 140.663 363.583 147.228 360.855C153.823 358.097 160.868 356.719 168.392 356.719ZM168.392 449.827C174.148 449.827 179.544 448.793 184.58 446.71C189.646 444.596 194.082 441.659 197.889 437.896C201.682 434.149 204.664 429.803 206.823 424.886C208.981 419.97 210.06 414.694 210.06 409.058C210.06 403.393 208.981 398.087 206.823 393.171C204.664 388.254 201.682 383.923 197.889 380.161C194.082 376.413 189.646 373.491 184.58 371.407C179.544 369.339 174.148 368.29 168.392 368.29C162.636 368.29 157.241 369.339 152.204 371.407C147.198 373.491 142.762 376.413 138.895 380.161C135.058 383.923 132.06 388.254 129.902 393.171C127.773 398.087 126.724 403.393 126.724 409.058C126.724 414.694 127.773 419.97 129.902 424.886C132.06 429.803 135.058 434.149 138.895 437.896C142.762 441.659 147.198 444.596 152.204 446.71C157.241 448.793 162.636 449.827 168.392 449.827Z" fill="#F2F2F2"/>
<path d="M298.46 356.719C306.045 356.719 313.119 358.097 319.684 360.855C326.279 363.583 332.05 367.315 337.011 372.067C342.002 376.833 345.899 382.379 348.702 388.734C351.535 395.059 352.959 401.834 352.959 409.058C352.959 416.253 351.535 423.028 348.702 429.383C345.899 435.708 342.002 441.254 337.011 446.05C332.05 450.816 326.279 454.564 319.684 457.322C313.119 460.049 306.045 461.398 298.46 461.398C290.936 461.398 283.892 460.049 277.297 457.322C270.732 454.564 264.961 450.816 259.97 446.05C255.009 441.254 251.112 435.708 248.279 429.383C245.476 423.028 244.082 416.253 244.082 409.058C244.082 401.834 245.476 395.059 248.279 388.734C251.112 382.379 255.009 376.833 259.97 372.067C264.961 367.315 270.732 363.583 277.297 360.855C283.892 358.097 290.936 356.719 298.46 356.719ZM298.46 449.827C304.216 449.827 309.612 448.793 314.648 446.71C319.714 444.596 324.151 441.659 327.958 437.896C331.75 434.149 334.733 429.803 336.891 424.886C339.049 419.97 340.129 414.694 340.129 409.058C340.129 403.393 339.049 398.087 336.891 393.171C334.733 388.254 331.75 383.923 327.958 380.161C324.151 376.413 319.714 373.491 314.648 371.407C309.612 369.339 304.216 368.29 298.46 368.29C292.705 368.29 287.309 369.339 282.273 371.407C277.267 373.491 272.83 376.413 268.963 380.161C265.126 383.923 262.128 388.254 259.97 393.171C257.842 398.087 256.792 403.393 256.792 409.058C256.792 414.694 257.842 419.97 259.97 424.886C262.128 429.803 265.126 434.149 268.963 437.896C272.83 441.659 277.267 444.596 282.273 446.71C287.309 448.793 292.705 449.827 298.46 449.827Z" fill="#F2F2F2"/>
<path d="M446.933 460.497L423.551 428.661C422.472 428.751 421.333 428.811 420.134 428.841C418.965 428.886 417.811 428.901 416.656 428.901H391.536V460.497H378.945V357.436H421.213C430.641 357.436 438.12 359.084 443.636 362.352C449.152 365.634 453.079 369.936 455.447 375.242C457.845 380.518 459.044 386.184 459.044 392.209C459.044 401.412 457.021 408.801 452.989 414.392C448.942 419.998 443.306 423.91 436.082 426.143L462.102 460.497H446.933ZM391.536 418.529H416.237C425.59 418.529 432.874 416.415 438.12 412.174C443.396 407.947 446.034 401.547 446.034 392.988C446.034 388.672 445.165 384.625 443.456 380.818C441.777 377.026 438.989 373.968 435.122 371.645C431.285 369.291 426.099 368.107 419.594 368.107H391.536V418.529Z" fill="#F2F2F2"/>
<path d="M588.95 357.436H602.739L554.776 460.497H548.481L500.518 357.436H514.127L551.539 439.872L588.95 357.436Z" fill="#F2F2F2"/>
<path d="M637.945 460.497H625.234V357.436H637.945V460.497Z" fill="#F2F2F2"/>
<path d="M706.04 403.36C712.95 404.919 719.17 406.822 724.686 409.056C730.201 411.304 734.548 414.257 737.756 417.929C740.948 421.571 742.552 426.412 742.552 432.438C742.552 438.553 740.963 443.814 737.816 448.206C734.653 452.612 730.216 455.97 724.506 458.278C718.825 460.556 712.125 461.695 704.421 461.695C700.224 461.695 696.477 461.545 693.21 461.276C689.972 461.036 686.855 460.616 683.857 460.017C680.889 459.387 677.802 458.428 674.564 457.139C671.356 455.865 667.729 454.201 663.652 452.163L668.329 442.51C673.2 444.878 677.472 446.677 681.159 447.906C684.876 449.105 688.563 449.914 692.25 450.304C695.968 450.664 700.164 450.844 704.841 450.844C712.47 450.844 718.54 449.315 723.067 446.227C727.578 443.154 729.842 438.853 729.842 433.337C729.842 429.71 728.703 426.727 726.424 424.404C724.146 422.051 720.968 420.132 716.892 418.648C712.845 417.134 708.153 415.74 702.802 414.451C697.556 413.177 692.64 411.813 688.054 410.375C683.452 408.906 679.39 407.122 675.883 405.039C672.406 402.925 669.663 400.272 667.669 397.065C665.661 393.827 664.672 389.84 664.672 385.074C664.672 379.528 666.125 374.612 669.048 370.325C671.956 366.009 676.123 362.651 681.519 360.253C686.945 357.825 693.42 356.596 700.944 356.596C707.734 356.596 714.493 357.375 721.208 358.934C727.953 360.493 733.709 362.396 738.475 364.63L733.199 374.522C730.276 373.083 726.934 371.824 723.187 370.745C719.47 369.666 715.648 368.856 711.736 368.287C707.809 367.687 704.151 367.387 700.764 367.387C693.36 367.387 687.589 368.976 683.437 372.124C679.315 375.286 677.262 379.363 677.262 384.354C677.262 387.952 678.476 390.919 680.919 393.228C683.347 395.506 686.735 397.424 691.051 398.983C695.398 400.542 700.404 402.011 706.04 403.36Z" fill="#F2F2F2"/>
<path d="M781.011 460.497H768.301V357.436H781.011V460.497Z" fill="#F2F2F2"/>
<path d="M861.41 356.718C868.994 356.718 876.068 358.097 882.633 360.855C889.228 363.583 894.999 367.315 899.96 372.066C904.951 376.832 908.848 382.378 911.651 388.733C914.484 395.058 915.908 401.833 915.908 409.058C915.908 416.252 914.484 423.027 911.651 429.382C908.848 435.707 904.951 441.253 899.96 446.049C894.999 450.816 889.228 454.563 882.633 457.321C876.068 460.049 868.994 461.398 861.41 461.398C853.885 461.398 846.841 460.049 840.246 457.321C833.681 454.563 827.91 450.816 822.919 446.049C817.958 441.253 814.061 435.707 811.228 429.382C808.425 423.027 807.031 416.252 807.031 409.058C807.031 401.833 808.425 395.058 811.228 388.733C814.061 382.378 817.958 376.832 822.919 372.066C827.91 367.315 833.681 363.583 840.246 360.855C846.841 358.097 853.885 356.718 861.41 356.718ZM861.41 449.827C867.165 449.827 872.561 448.792 877.597 446.709C882.663 444.596 887.1 441.658 890.907 437.896C894.699 434.149 897.682 429.802 899.84 424.886C901.999 419.969 903.078 414.693 903.078 409.058C903.078 403.392 901.999 398.086 899.84 393.17C897.682 388.254 894.699 383.922 890.907 380.16C887.1 376.413 882.663 373.49 877.597 371.407C872.561 369.338 867.165 368.289 861.41 368.289C855.654 368.289 850.258 369.338 845.222 371.407C840.216 373.49 835.779 376.413 831.912 380.16C828.075 383.922 825.077 388.254 822.919 393.17C820.791 398.086 819.742 403.392 819.742 409.058C819.742 414.693 820.791 419.969 822.919 424.886C825.077 429.802 828.075 434.149 831.912 437.896C835.779 441.658 840.216 444.596 845.222 446.709C850.258 448.792 855.654 449.827 861.41 449.827Z" fill="#F2F2F2"/>
<path d="M1030.02 357.436V460.497H1023.48L954.475 380.998V460.497H941.885V357.436H948.48L1017.61 436.935V357.436H1030.02Z" fill="#F2F2F2"/>
</svg>
